<svg class="tiktok-1hy6k9f-StyledNumber eikhr9j9" width="16" height="16" viewBox="0 0 48 48" fill="currentColor" xmlns="http://www.w3.org/2000/svg"><path fill-rule="evenodd" clip-rule="evenodd" d="M16.4263 15L16.9566 3.95205C16.9822 3.41902 17.4218 2.99999 17.9554 2.99999H19.9494C20.5202 2.99999 20.9752 3.47701 20.9483 4.04718L20.4308 15H28.4263L28.9566 3.95205C28.9822 3.41902 29.4218 2.99999 29.9554 2.99999H31.9494C32.5202 2.99999 32.9752 3.47701 32.9483 4.04718L32.4308 15H43C43.5523 15 44 15.4477 44 16V18C44 18.5523 43.5523 19 43 19H32.2404L31.8118 28H42C42.5523 28 43 28.4477 43 29V31C43 31.5523 42.5523 32 42 32H31.6213L31.0434 44.0479C31.0178 44.581 30.5782 45 30.0446 45H28.0507C27.4798 45 27.0248 44.523 27.0518 43.9528L27.6168 32H19.6213L19.0434 44.0479C19.0178 44.581 18.5782 45 18.0446 45H16.0507C15.4798 45 15.0248 44.523 15.0518 43.9528L15.6168 32H5C4.44772 32 4 31.5523 4 31V29C4 28.4477 4.44772 28 5 28H15.8073L16.2358 19H6C5.44772 19 5 18.5523 5 18V16C5 15.4477 5.44772 15 6 15H16.4263ZM20.2404 19L19.8118 28H27.8073L28.2358 19H20.2404Z"></path></svg>