<svg width="26" height="26" viewBox="0 0 48 48" fill="none" xmlns="http://www.w3.org/2000/svg"><circle cx="24" cy="24" r="24" fill="#0A66C2"></circle><path d="M25.2775 21.8588C25.5235 21.4456 25.8234 21.067 26.1692 20.7329C26.6685 20.2507 27.2585 19.8724 27.9051 19.6199C28.5518 19.3675 29.2421 19.246 29.936 19.2625C31.0487 19.2625 32.1351 19.3862 33.1478 19.8886C34.6419 20.6251 35.3363 21.9324 35.6888 23.4765C35.9239 24.6175 36.0298 25.7813 36.0044 26.946C36.0044 29.7685 36.0044 32.5909 36.0044 35.416C36.0044 35.6633 35.9387 35.7317 35.6914 35.729C34.242 35.729 32.7979 35.7159 31.3433 35.729C31.0803 35.729 31.0119 35.6659 31.0145 35.4029C31.025 32.7251 31.025 30.0482 31.0145 27.3722C31.0217 26.806 30.9679 26.2407 30.854 25.686C30.5252 24.1867 29.5835 23.5002 28.0553 23.6527C26.527 23.8053 25.6879 24.6891 25.4827 26.3384C25.4319 26.7652 25.4073 27.1948 25.409 27.6247C25.409 30.2183 25.409 32.8093 25.409 35.4029C25.409 35.6659 25.3354 35.7317 25.0776 35.729C23.6177 35.7159 22.1578 35.729 20.6979 35.729C20.4586 35.729 20.4033 35.6607 20.4033 35.4292C20.4033 30.2735 20.4033 25.1196 20.4033 19.9675C20.4033 19.7044 20.4849 19.6571 20.7242 19.6571C22.1105 19.6571 23.4967 19.6702 24.883 19.6571C25.146 19.6571 25.1986 19.7386 25.1933 19.978C25.1802 20.5935 25.1933 21.209 25.1933 21.8193L25.2775 21.8588Z" fill="#FDFEFE"></path><path d="M17.2574 27.6825C17.2574 30.2525 17.2574 32.825 17.2574 35.395C17.2574 35.658 17.2022 35.7316 16.9312 35.729C15.474 35.7159 14.0141 35.729 12.5542 35.729C12.3254 35.729 12.2517 35.6817 12.2517 35.437C12.2517 30.2744 12.2517 25.1108 12.2517 19.9464C12.2517 19.736 12.2938 19.6544 12.5148 19.6571C13.9948 19.6676 15.4749 19.6676 16.9549 19.6571C17.218 19.6571 17.2443 19.7491 17.2443 19.9675C17.2548 22.54 17.2574 25.1126 17.2574 27.6825Z" fill="#FDFDFE"></path><path d="M11.8755 14.5541C11.8755 13.9811 12.0456 13.4211 12.3642 12.9449C12.6829 12.4688 13.1357 12.0979 13.6654 11.8794C14.195 11.6608 14.7776 11.6045 15.3393 11.7174C15.901 11.8303 16.4165 12.1075 16.8206 12.5137C17.2246 12.92 17.4989 13.437 17.6088 13.9993C17.7186 14.5616 17.659 15.1439 17.4376 15.6723C17.2162 16.2008 16.8429 16.6516 16.365 16.9676C15.8871 17.2836 15.3261 17.4507 14.7532 17.4476C13.9896 17.44 13.2597 17.1322 12.7212 16.5907C12.1827 16.0493 11.8789 15.3177 11.8755 14.5541Z" fill="#FDFDFE"></path></svg>