<svg xmlns="http://www.w3.org/2000/svg" fill="currentColor" viewBox="0 0 48 48" width="1em" height="1em"><path fill-rule="evenodd" d="M32.54 4c.278 2.368-.73 4.699-2.203 6.412-1.537 1.687-3.999 2.978-6.395 2.811-.312-2.276.9-4.697 2.26-6.174C27.739 5.372 30.406 4.09 32.539 4zm7.844 13.647c-.276.153-4.7 2.614-4.65 7.625.055 6.058 5.697 8.059 5.766 8.08-.034.14-.883 2.89-2.999 5.68-1.768 2.458-3.621 4.86-6.56 4.905-1.399.03-2.342-.345-3.326-.734-1.026-.407-2.095-.831-3.77-.831-1.773 0-2.89.437-3.966.86-.932.364-1.833.717-3.104.766-2.801.097-4.94-2.624-6.772-5.06-3.659-4.97-6.51-14.01-2.689-20.159 1.851-3.016 5.23-4.96 8.837-5.011 1.59-.031 3.114.538 4.45 1.038 1.02.381 1.932.722 2.678.722.657 0 1.543-.328 2.576-.709 1.628-.601 3.62-1.336 5.648-1.137 1.387.036 5.338.508 7.887 3.962l-.006.003z" clip-rule="evenodd"></path></svg>